<svg xmlns="http://www.w3.org/2000/svg" viewBox="0 0 512 512" width="100%" height="100%">
  <defs>
    <linearGradient id="bgGrad" x1="15%" y1="0%" x2="85%" y2="100%">
      <stop offset="0%" stop-color="#0f111a"/>
      <stop offset="50%" stop-color="#141824"/>
      <stop offset="100%" stop-color="#090a0f"/>
    </linearGradient>
    <linearGradient id="cyberGrad" x1="0%" y1="100%" x2="100%" y2="0%">
      <stop offset="0%" stop-color="#70a1ff"/>
      <stop offset="40%" stop-color="#10ac84"/>
      <stop offset="100%" stop-color="#2ed573"/>
    </linearGradient>
    <filter id="neonGlow" x="-20%" y="-20%" width="140%" height="140%">
      <feGaussianBlur stdDeviation="8" result="blur" />
      <feMerge>
        <feMergeNode in="blur" />
        <feMergeNode in="SourceGraphic" />
      </feMerge>
    </filter>
  </defs>

  <rect x="32" y="32" width="448" height="448" rx="110" fill="url(#bgGrad)" stroke="#1f2638" stroke-width="3"/>

  <g opacity="0.06" stroke="#ffffff" stroke-width="1.5">
    <circle cx="256" cy="230" r="180" fill="none" stroke-dasharray="4 8"/>
    <circle cx="256" cy="230" r="120" fill="none"/>
    <circle cx="256" cy="230" r="60" fill="none" stroke-dasharray="2 4"/>
    <line x1="76" y1="230" x2="436" y2="230" />
    <line x1="256" y1="50" x2="256" y2="410" />
  </g>

  <g opacity="0.12" fill="none" stroke="url(#cyberGrad)" stroke-width="3" stroke-linecap="round">
    <path d="M 90 350 Q 130 310, 170 350 T 250 350 T 330 350 T 410 350" />
    <path d="M 110 370 Q 145 345, 180 370 T 250 370 T 320 370 T 390 370" opacity="0.5"/>
  </g>

  <g filter="url(#neonGlow)" fill="none" stroke-linecap="round">
    <path d="M 120 130 A 170 170 0 0 1 392 130" stroke="#70a1ff" stroke-width="7" opacity="0.4" />
    <path d="M 160 165 A 120 120 0 0 1 352 165" stroke="#10ac84" stroke-width="8" opacity="0.7" />
    <path d="M 200 200 A 70 70 0 0 1 312 200" stroke="#2ed573" stroke-width="9" />
    <line x1="256" y1="180" x2="256" y2="350" stroke="#ffffff" stroke-width="12"/>
    <path d="M 140 150 L 256 266 L 150 372" stroke="url(#cyberGrad)" stroke-width="12" stroke-linejoin="round"/>
    <path d="M 372 150 L 256 266 L 350 350 C 375 372, 350 405, 305 400 L 210 400" stroke="#2ed573" stroke-width="12" stroke-linejoin="round"/>
  </g>

  <circle cx="256" cy="266" r="16" fill="#0f111a" stroke="#ffffff" stroke-width="4" filter="url(#neonGlow)"/>
  <circle cx="256" cy="266" r="6" fill="#2ed573" />

  <text x="256" y="455" font-family="-apple-system, BlinkMacSystemFont, 'Segoe UI', 'Roboto', sans-serif" font-size="28" font-weight="700" fill="#ffffff" letter-spacing="7" text-anchor="middle" opacity="0.95">
    XLOG<tspan fill="#2ed573" font-weight="900">2</tspan>
  </text>
</svg>
